<?xml version="1.0" encoding="UTF-8" standalone="no"?>
<!-- Created with Inkscape (http://www.inkscape.org/) -->

<svg
   xmlns:dc="http://purl.org/dc/elements/1.1/"
   xmlns:cc="http://creativecommons.org/ns#"
   xmlns:rdf="http://www.w3.org/1999/02/22-rdf-syntax-ns#"
   xmlns:svg="http://www.w3.org/2000/svg"
   xmlns="http://www.w3.org/2000/svg"
   xmlns:sodipodi="http://sodipodi.sourceforge.net/DTD/sodipodi-0.dtd"
   xmlns:inkscape="http://www.inkscape.org/namespaces/inkscape"
   version="1.1"
   id="svg10"
   xml:space="preserve"
   width="273.33334"
   height="154"
   viewBox="0 0 273.33334 154"
   sodipodi:docname="nave.svg"
   inkscape:version="0.92.4 (5da689c313, 2019-01-14)"
   inkscape:export-filename="C:\Users\Master\Documents\GitHub\Learning_in_unity\Missil\nave.png"
   inkscape:export-xdpi="203.53856"
   inkscape:export-ydpi="203.53856"><metadata
     id="metadata16"><rdf:RDF><cc:Work
         rdf:about=""><dc:format>image/svg+xml</dc:format><dc:type
           rdf:resource="http://purl.org/dc/dcmitype/StillImage" /></cc:Work></rdf:RDF></metadata><defs
     id="defs14"><clipPath
       clipPathUnits="userSpaceOnUse"
       id="clipPath26"><path
         d="M 0,115.5 H 205 V 0 H 0 Z"
         id="path24"
         inkscape:connector-curvature="0" /></clipPath><clipPath
       clipPathUnits="userSpaceOnUse"
       id="clipPath38"><path
         d="M 0,115.5 H 205 V 0 H 0 Z"
         id="path36"
         inkscape:connector-curvature="0" /></clipPath><clipPath
       clipPathUnits="userSpaceOnUse"
       id="clipPath50"><path
         d="M 0,115.5 H 205 V 0 H 0 Z"
         id="path48"
         inkscape:connector-curvature="0" /></clipPath><clipPath
       clipPathUnits="userSpaceOnUse"
       id="clipPath66"><path
         d="M 0,115.5 H 205 V 0 H 0 Z"
         id="path64"
         inkscape:connector-curvature="0" /></clipPath><clipPath
       clipPathUnits="userSpaceOnUse"
       id="clipPath78"><path
         d="M 0,115.5 H 205 V 0 H 0 Z"
         id="path76"
         inkscape:connector-curvature="0" /></clipPath><clipPath
       clipPathUnits="userSpaceOnUse"
       id="clipPath90"><path
         d="M 0,115.5 H 205 V 0 H 0 Z"
         id="path88"
         inkscape:connector-curvature="0" /></clipPath><clipPath
       clipPathUnits="userSpaceOnUse"
       id="clipPath102"><path
         d="M 0,115.5 H 205 V 0 H 0 Z"
         id="path100"
         inkscape:connector-curvature="0" /></clipPath><clipPath
       clipPathUnits="userSpaceOnUse"
       id="clipPath118"><path
         d="M 0,115.5 H 205 V 0 H 0 Z"
         id="path116"
         inkscape:connector-curvature="0" /></clipPath><clipPath
       clipPathUnits="userSpaceOnUse"
       id="clipPath126"><path
         d="M 55.1372,68.4147 H 69.5077 V 56.688 H 55.1372 Z"
         id="path124"
         inkscape:connector-curvature="0" /></clipPath><clipPath
       clipPathUnits="userSpaceOnUse"
       id="clipPath142"><path
         d="M 0,115.5 H 205 V 0 H 0 Z"
         id="path140"
         inkscape:connector-curvature="0" /></clipPath></defs><sodipodi:namedview
     pagecolor="#ffffff"
     bordercolor="#666666"
     borderopacity="1"
     objecttolerance="10"
     gridtolerance="10"
     guidetolerance="10"
     inkscape:pageopacity="0"
     inkscape:pageshadow="2"
     inkscape:window-width="1366"
     inkscape:window-height="704"
     id="namedview12"
     showgrid="false"
     inkscape:object-nodes="false"
     inkscape:zoom="3.474026"
     inkscape:cx="92.3377"
     inkscape:cy="72.662116"
     inkscape:window-x="-8"
     inkscape:window-y="-8"
     inkscape:window-maximized="1"
     inkscape:current-layer="g18" /><g
     id="g18"
     inkscape:groupmode="layer"
     inkscape:label="nave"
     transform="matrix(1.3333333,0,0,-1.3333333,0,154)"
     style="opacity:1"><g
       id="g20"
       style=""><g
         id="g22"
         clip-path="url(#clipPath26)"
         style=""><g
           id="g28"
           transform="translate(160.3896,30.0469)"
           style=""><path
             d="m 0,0 c 0,-7.533 -27.247,-13.641 -60.858,-13.641 -33.612,0 -60.859,6.108 -60.859,13.641 0,7.534 27.247,13.641 60.859,13.641 C -27.247,13.641 0,7.534 0,0"
             style="fill:#bd4506;fill-opacity:1;fill-rule:nonzero;stroke:none"
             id="path30"
             inkscape:connector-curvature="0" /></g></g></g><g
       id="g32"
       style=""><g
         id="g34"
         clip-path="url(#clipPath38)"
         style=""><g
           id="g40"
           transform="translate(60.125,31.5625)"
           style=""><path
             d="M 0,0 C 0,0 -3.031,-4.547 6.062,-9.094 18.187,-15.156 -24.25,-12.125 -24.25,3.031 -24.25,18.187 0,0 0,0"
             style="fill:#7c451f;fill-opacity:1;fill-rule:nonzero;stroke:none"
             id="path42"
             inkscape:connector-curvature="0" /></g></g></g><g
       id="g44"
       style=""><g
         id="g46"
         clip-path="url(#clipPath50)"
         style=""><g
           id="g52"
           transform="translate(99.5313,22.5938)"
           style=""><path
             d="m 0,0 c -46.084,0 -84.644,8.615 -87.786,19.612 -0.908,2.499 -0.66,4.77 0.733,6.761 8.027,11.458 53.527,12.783 87.053,12.783 37.767,0 80.567,-3.762 87.431,-14.323 1.053,-1.622 1.175,-3.373 0.361,-5.204 C 84.644,8.615 46.084,0 0,0"
             style="fill:#ffffff;fill-opacity:1;fill-rule:nonzero;stroke:none"
             id="path54"
             inkscape:connector-curvature="0" /></g><g
           id="g56"
           transform="translate(99.5313,61.875)"
           style=""><path
             d="m 0,0 c -48.549,0 -93.969,-3.031 -87.906,-19.703 3.031,-10.609 39.357,-19.703 87.906,-19.703 48.549,0 84.875,9.094 87.906,19.703 C 93.969,-6.062 48.549,0 0,0 m 0,-0.25 c 21.967,0 41.662,-1.201 56.955,-3.472 16.912,-2.512 27.414,-6.245 30.371,-10.795 1.029,-1.584 1.148,-3.295 0.34,-5.117 C 84.538,-30.581 46.031,-39.156 0,-39.156 c -46.031,0 -84.538,8.575 -87.671,19.538 -0.891,2.45 -0.648,4.683 0.721,6.638 7.992,11.41 53.451,12.73 86.95,12.73"
             style="fill:#000000;fill-opacity:1;fill-rule:nonzero;stroke:none"
             id="path58"
             inkscape:connector-curvature="0" /></g></g></g><g
       id="g60"
       style=""><g
         id="g62"
         clip-path="url(#clipPath66)"
         style=""><g
           id="g68"
           transform="translate(187.4375,48.2344)"
           style=""><path
             d="m 0,0 c 0,-10.882 -39.357,-19.703 -87.906,-19.703 -48.549,0 -87.906,8.821 -87.906,19.703 0,10.882 39.357,19.703 87.906,19.703 C -39.357,19.703 0,10.882 0,0"
             style="fill:#ff7506;fill-opacity:1;fill-rule:nonzero;stroke:none"
             id="path70"
             inkscape:connector-curvature="0" /></g></g></g><g
       id="g72"
       style=""><g
         id="g74"
         clip-path="url(#clipPath78)"
         style=""><g
           id="g80"
           transform="translate(51.0313,64.9063)"
           style=""><path
             d="M 0.15265577,-0.20990168 C 0.15265577,-0.20990168 -24.25,-6.062 -18.187,-15.156 -12.125,-24.25 -21.219,-21.219 0,-27.281 c 0,0 6.062,-3.031 18.187,-6.063 l 12.125,-3.031 c 0,0 -62.630223,2.792291 -69.565344,18.812843 0,0 -3.718951,10.0137966 38.2229176,17.19959955"
             style="fill:#ce641d;fill-opacity:1;fill-rule:nonzero;stroke:none"
             id="path82"
             inkscape:connector-curvature="0"
             sodipodi:nodetypes="ccccccc" /></g></g></g><g
       id="g84"
       transform="matrix(0.98777242,0,0,1.0083885,1.3789432,-0.92562996)"
       style=""><g
         id="g86"
         clip-path="url(#clipPath90)"
         style=""><g
           id="g92"
           transform="translate(51.0313,58.8438)"
           style=""><path
             d="M 0,0 C 0,0 -3.031,51.531 48.5,51.531 100.031,51.531 97,0 97,0 Z"
             style="fill:none;stroke:#ffffff;stroke-width:0.25;stroke-linecap:butt;stroke-linejoin:miter;stroke-miterlimit:10;stroke-dasharray:none;stroke-opacity:1"
             id="path94"
             inkscape:connector-curvature="0" /></g></g></g><g
       id="g96"
       style=""><g
         id="g98"
         clip-path="url(#clipPath102)"
         style=""><g
           id="g104"
           transform="translate(99.5313,46.8438)"
           style=""><path
             d="m 0,0 c -26.674,0 -48.375,4.703 -48.375,10.484 0,5.782 21.701,10.485 48.375,10.485 26.674,0 48.375,-4.703 48.375,-10.485 C 48.375,4.703 26.674,0 0,0"
             style="fill:#752929;fill-opacity:1;fill-rule:nonzero;stroke:none"
             id="path106"
             inkscape:connector-curvature="0" /></g><g
           id="g108"
           transform="translate(99.5313,67.9375)"
           style=""><path
             d="m 0,0 c -26.786,0 -48.5,-4.75 -48.5,-10.609 0,-5.86 21.714,-10.61 48.5,-10.61 26.786,0 48.5,4.75 48.5,10.61 C 48.5,-4.75 26.786,0 0,0 m 0,-0.25 c 12.938,0 25.098,-1.102 34.241,-3.102 8.903,-1.947 14.009,-4.592 14.009,-7.257 0,-2.665 -5.106,-5.31 -14.009,-7.258 -9.143,-2 -21.303,-3.102 -34.241,-3.102 -12.938,0 -25.098,1.102 -34.241,3.102 -8.903,1.948 -14.009,4.593 -14.009,7.258 0,2.665 5.106,5.31 14.009,7.257 9.143,2 21.303,3.102 34.241,3.102"
             style="fill:#000000;fill-opacity:1;fill-rule:nonzero;stroke:none"
             id="path110"
             inkscape:connector-curvature="0" /></g></g></g><g
       id="g112"
       style=""><g
         id="g114"
         clip-path="url(#clipPath118)"
         style=""><g
           id="g120"
           style=""><g
             id="g122"
             style="" /><g
             id="g134"
             style=""><g
               clip-path="url(#clipPath126)"
               id="g132"
               style="opacity:0.38999903"><g
                 transform="translate(55.2109,63.4146)"
                 id="g130"
                 style=""><path
                   d="m 0,0 c 0.841,-5.346 9.904,-6.801 14.266,-6.724 0.066,0.001 0.007,5 0,5 C 9.898,-1.802 0.84,-0.341 0,5 0.255,3.38 -0.256,1.631 0,0"
                   style="fill:#ffffff;fill-opacity:1;fill-rule:nonzero;stroke:none"
                   id="path128"
                   inkscape:connector-curvature="0" /></g></g></g></g></g></g><g
       id="g136"
       style=""><g
         id="g138"
         clip-path="url(#clipPath142)"
         style=""><g
           id="g144"
           transform="translate(81.3438,49.75)"
           style=""><path
             d="m 0,0 c 0,0 -6.062,12.125 0,18.187 6.062,6.063 3.031,9.094 3.031,9.094 0,0 0,6.063 -6.062,6.063 -6.063,0 -9.094,9.094 -3.031,9.094 C 0,42.438 0,39.406 0,39.406 c 0,0 3.031,-6.062 6.062,-6.062 3.032,0 6.063,-3.032 12.125,0 6.063,3.031 9.094,6.062 9.094,6.062 0,0 -1.014378,4.552491 5.299721,7.13159 0,0 3.794279,1.96241 6.825279,-1.06859 2.383213,-3.641623 -0.40908,-7.267722 -3.031,-9.094 -2.641037,-1.839594 -6.063,0 -9.094,-3.031 -3.031,-3.032 -3.031,-12.125 0,-12.125 3.031,0 6.063,-9.094 6.063,-15.157 V 0 Z"
             style="fill:#f43674;fill-opacity:1;fill-rule:nonzero;stroke:none"
             id="path146"
             inkscape:connector-curvature="0"
             sodipodi:nodetypes="cccsscsccccscsscc" /></g><g
           id="g148"
           transform="translate(119.2344,90.6719)"
           style=""><path
             d="m 0,0 c 0,-1.674 -1.357,-3.031 -3.031,-3.031 -1.674,0 -3.031,1.357 -3.031,3.031 0,1.674 1.357,3.031 3.031,3.031 C -1.357,3.031 0,1.674 0,0"
             style="fill:#ffffff;fill-opacity:1;fill-rule:nonzero;stroke:none"
             id="path150"
             inkscape:connector-curvature="0" /></g><g
           id="g152"
           transform="translate(119.2344,90.6719)"
           style=""><path
             d="m 0,0 c 0,-1.674 -1.357,-3.031 -3.031,-3.031 -1.674,0 -3.031,1.357 -3.031,3.031 0,1.674 1.357,3.031 3.031,3.031 C -1.357,3.031 0,1.674 0,0 Z"
             style="fill:none;stroke:#000000;stroke-width:0.25;stroke-linecap:butt;stroke-linejoin:miter;stroke-miterlimit:10;stroke-dasharray:none;stroke-opacity:1"
             id="path154"
             inkscape:connector-curvature="0" /></g><g
           id="g156"
           transform="translate(81.3438,86.125)"
           style=""><path
             d="m 0,0 c 0,-1.674 -1.357,-3.031 -3.031,-3.031 -1.674,0 -3.031,1.357 -3.031,3.031 0,1.674 1.357,3.031 3.031,3.031 C -1.357,3.031 0,1.674 0,0"
             style="fill:#ffffff;fill-opacity:1;fill-rule:nonzero;stroke:none"
             id="path158"
             inkscape:connector-curvature="0" /></g><g
           id="g160"
           transform="translate(81.3438,86.125)"
           style=""><path
             d="m 0,0 c 0,-1.674 -1.357,-3.031 -3.031,-3.031 -1.674,0 -3.031,1.357 -3.031,3.031 0,1.674 1.357,3.031 3.031,3.031 C -1.357,3.031 0,1.674 0,0 Z"
             style="fill:none;stroke:#000000;stroke-width:0.25;stroke-linecap:butt;stroke-linejoin:miter;stroke-miterlimit:10;stroke-dasharray:none;stroke-opacity:1"
             id="path162"
             inkscape:connector-curvature="0" /></g><g
           id="g164"
           transform="translate(117.7188,90.6719)"
           style=""><path
             d="m 0,0 c 0,-0.837 -0.679,-1.516 -1.516,-1.516 -0.837,0 -1.515,0.679 -1.515,1.516"
             style="fill:#000000;fill-opacity:1;fill-rule:nonzero;stroke:#000000;stroke-width:0.25;stroke-linecap:butt;stroke-linejoin:miter;stroke-miterlimit:10;stroke-dasharray:none;stroke-opacity:1"
             id="path166"
             inkscape:connector-curvature="0" /></g><g
           id="g168"
           transform="translate(78.3125,86.125)"
           style=""><path
             d="M 0,0 Z"
             style="fill:#000000;fill-opacity:1;fill-rule:nonzero;stroke:none"
             id="path170"
             inkscape:connector-curvature="0" /></g><g
           id="g172"
           transform="translate(78.3125,86.125)"
           style=""><path
             d="M 0,0 Z"
             style="fill:none;stroke:#000000;stroke-width:0.25;stroke-linecap:butt;stroke-linejoin:miter;stroke-miterlimit:10;stroke-dasharray:none;stroke-opacity:1"
             id="path174"
             inkscape:connector-curvature="0" /></g><g
           id="g176"
           transform="translate(80.5,85.5)"
           style=""><path
             d="M 0,0 C 0,-0.829 -0.672,-1.5 -1.5,-1.5 -2.328,-1.5 -3,-0.829 -3,0 -3,0.829 -2.328,1.5 -1.5,1.5 -0.672,1.5 0,0.829 0,0"
             style="fill:#000000;fill-opacity:1;fill-rule:nonzero;stroke:none"
             id="path178"
             inkscape:connector-curvature="0" /></g><g
           id="g180"
           transform="translate(80.5,85.5)"
           style=""><path
             d="M 0,0 C 0,-0.829 -0.672,-1.5 -1.5,-1.5 -2.328,-1.5 -3,-0.829 -3,0 -3,0.829 -2.328,1.5 -1.5,1.5 -0.672,1.5 0,0.829 0,0 Z"
             style="fill:none;stroke:#000000;stroke-width:0.25;stroke-linecap:butt;stroke-linejoin:miter;stroke-miterlimit:10;stroke-dasharray:none;stroke-opacity:1"
             id="path182"
             inkscape:connector-curvature="0" /></g><g
           id="g184"
           transform="translate(86.5,68)"
           style=""><path
             d="m 0,0 c 0,0 6,-5 16,-1 10,4 3,-8 3,-8 0,0 -12,-4 -16,0 -4,4 -8,6 -3,9"
             style="fill:#000000;fill-opacity:1;fill-rule:nonzero;stroke:none"
             id="path186"
             inkscape:connector-curvature="0" /></g><g
           id="g188"
           transform="translate(86.5,68)"
           style=""><path
             d="m 0,0 c 0,0 6,-5 16,-1 10,4 3,-8 3,-8 0,0 -12,-4 -16,0 -4,4 -8,6 -3,9 z"
             style="fill:none;stroke:#000000;stroke-width:0.25;stroke-linecap:butt;stroke-linejoin:miter;stroke-miterlimit:10;stroke-dasharray:none;stroke-opacity:1"
             id="path190"
             inkscape:connector-curvature="0" /></g><g
           id="g192"
           transform="translate(93.6289,62)"
           style=""><path
             d="m 0,0 c 2.522,0 7.567,-1.412 8.829,-4.235 1.262,-2.824 -3.784,-1.412 -3.784,-1.412 0,0 -3.784,2.823 -6.307,2.823 C -3.784,-2.824 0,0 0,0"
             style="fill:#cf001b;fill-opacity:1;fill-rule:nonzero;stroke:none"
             id="path194"
             inkscape:connector-curvature="0" /></g><g
           id="g196"
           transform="translate(93.6289,62)"
           style=""><path
             d="m 0,0 c 2.522,0 7.567,-1.412 8.829,-4.235 1.262,-2.824 -3.784,-1.412 -3.784,-1.412 0,0 -3.784,2.823 -6.307,2.823 C -3.784,-2.824 0,0 0,0 Z"
             style="fill:none;stroke:#fe1514;stroke-width:0.25;stroke-linecap:butt;stroke-linejoin:miter;stroke-miterlimit:10;stroke-dasharray:none;stroke-opacity:1"
             id="path198"
             inkscape:connector-curvature="0" /></g><g
           id="g200"
           transform="translate(90.5,67)"
           style=""><path
             d="m 0,0 c 0,0 -1,4 -4,3 -3,-1 -4,-2 -4,-4 0,-2 2,-5 2,-5"
             style="fill:none;stroke:#000000;stroke-width:0.25;stroke-linecap:butt;stroke-linejoin:miter;stroke-miterlimit:10;stroke-dasharray:none;stroke-opacity:1"
             id="path202"
             inkscape:connector-curvature="0" /></g><g
           id="g204"
           transform="translate(105.5,69)"
           style=""><path
             d="M 0,0 C 0,0 1,1 3,-1 5,-3 4,-5 4,-5"
             style="fill:none;stroke:#000000;stroke-width:0.25;stroke-linecap:butt;stroke-linejoin:miter;stroke-miterlimit:10;stroke-dasharray:none;stroke-opacity:1"
             id="path206"
             inkscape:connector-curvature="0" /></g><g
           id="g208"
           transform="translate(83.5,80)"
           style=""><path
             d="M 0,0.48574768 C 0,0.48574768 11,2 9,-3 7,-8 6,-4 5,-6 4,-8 3,-8 2,-8 H 0.94602804 c 0,0 0.46028036,3.8966121 -0.37932242,6.3538551"
             style="fill:#b22d5d;fill-opacity:1;fill-rule:nonzero;stroke:none"
             id="path210"
             inkscape:connector-curvature="0"
             sodipodi:nodetypes="cssscc" /></g><g
           id="g212"
           transform="translate(79.5,56)"
           style=""><path
             d="M -0.40478973,0.05397196 C -0.40478973,0.05397196 12,-7 23,-6 c 11,1 12.161916,0.946028 12.161916,0.946028 l -0.08096,-1.991056 C 35.127692,-7.6378431 34.613,-8.04 34.102,-8.087 30.178,-8.45 14.192,-9.742 2,-8 Z"
             style="fill:#b22d5d;fill-opacity:1;fill-rule:nonzero;stroke:none"
             id="path214"
             inkscape:connector-curvature="0"
             sodipodi:nodetypes="csccccc" /></g></g></g></g></svg>